<?xml version="1.0" standalone="no"?>
<!DOCTYPE svg PUBLIC "-//W3C//DTD SVG 20010904//EN"
 "http://www.w3.org/TR/2001/REC-SVG-20010904/DTD/svg10.dtd">
<svg version="1.0" xmlns="http://www.w3.org/2000/svg"
 width="500.000000pt" height="500.000000pt" viewBox="0 0 500.000000 500.000000"
 preserveAspectRatio="xMidYMid meet">
<metadata>
Created by potrace 1.14, written by Peter Selinger 2001-2017
</metadata>
<g transform="translate(0.000000,500.000000) scale(0.100000,-0.100000)"
fill="#000000" stroke="none">
<path d="M2366 3329 c-25 -20 -26 -23 -26 -137 l-1 -117 -34 80 c-46 106 -72
129 -141 123 -64 -6 -167 -54 -212 -101 -52 -54 -51 -83 11 -217 43 -95 58
-118 84 -131 64 -32 222 16 289 87 33 34 34 35 59 18 41 -27 166 -26 269 1 19
5 27 4 23 -2 -9 -14 80 -50 118 -49 26 1 33 8 56 56 l26 55 12 -36 c9 -29 9
-42 -4 -72 -8 -20 -15 -41 -15 -46 0 -13 88 -46 120 -45 21 1 26 -4 28 -25 2
-27 36 -73 115 -157 70 -75 92 -72 185 16 40 38 72 73 72 79 0 13 -58 79 -80
91 -12 7 -26 1 -54 -22 -20 -17 -38 -29 -39 -27 -2 2 -8 12 -16 21 -11 15 -7
22 29 55 24 21 46 40 51 41 5 2 28 -17 52 -41 53 -56 82 -59 132 -10 19 19 35
40 35 48 0 22 -131 155 -169 171 -49 20 -95 4 -161 -57 -30 -29 -68 -64 -83
-78 l-28 -26 9 25 c12 30 40 94 75 170 47 104 45 109 -45 141 -34 11 -39 11
-59 -7 -12 -10 -25 -28 -29 -39 -6 -16 -12 -7 -30 43 -20 55 -28 66 -63 83
-23 10 -45 19 -51 19 -21 0 -53 -51 -96 -149 -24 -56 -45 -99 -47 -97 -2 2 -4
61 -4 132 -1 73 -5 134 -11 142 -17 20 -109 15 -137 -9 -24 -20 -25 -25 -24
-145 0 -100 -2 -127 -14 -131 -7 -3 -17 -2 -20 1 -4 4 -7 68 -8 142 0 153 -1
154 -76 154 -32 0 -55 -6 -73 -21z m335 -18 c3 -59 -2 -299 -7 -313 -14 -45
-19 -5 -19 155 0 132 3 174 13 174 6 0 12 -7 13 -16z m-212 -121 c2 -142 4
-157 29 -163 10 -3 4 -5 -11 -6 -15 0 -30 5 -32 12 -2 6 -6 74 -8 150 -2 101
0 137 9 137 9 0 12 -37 13 -130z m431 75 c23 -12 33 -29 51 -84 14 -42 19 -76
14 -87 -4 -11 -9 -14 -10 -9 -35 126 -50 158 -79 176 -37 22 -18 26 24 4z
m-687 -33 c25 -28 107 -220 107 -251 0 -16 -8 -35 -17 -42 -15 -12 -16 -12 -8
1 5 8 8 26 6 40 -5 41 -91 223 -118 252 -23 24 -24 26 -5 21 11 -3 27 -12 35
-21z m892 -56 c19 -8 35 -17 35 -20 0 -3 -11 -29 -24 -58 -80 -178 -106 -239
-106 -247 0 -5 -7 -14 -15 -21 -15 -12 2 31 89 227 20 45 36 84 36 87 0 3 -17
14 -37 25 -44 23 -28 28 22 7z m-965 -122 c27 -63 31 -77 19 -85 -8 -5 -16 -9
-19 -9 -3 0 -20 34 -39 76 -28 63 -32 77 -20 85 8 5 17 9 20 9 3 0 20 -34 39
-76z m-93 47 c1 -10 18 -51 37 -91 28 -55 32 -71 19 -68 -23 4 -85 149 -71
165 13 17 13 17 15 -6z m799 -74 c-9 -36 -47 -119 -52 -114 -5 5 47 137 54
137 2 0 2 -10 -2 -23z m466 -16 c28 -11 148 -131 148 -148 0 -23 -12 -14 -74
53 -34 37 -74 75 -91 85 -32 20 -22 25 17 10z m-156 -220 c-3 -5 4 -20 15 -35
28 -36 13 -54 -16 -20 -18 21 -21 32 -14 46 5 10 12 18 15 18 3 0 3 -4 0 -9z
m190 -89 c-4 -7 -20 4 -40 26 -44 48 -34 65 12 19 19 -19 32 -40 28 -45z"/>
<path d="M1764 3062 c-16 -15 -40 -40 -53 -55 l-25 -27 46 -48 c25 -26 48 -55
51 -64 11 -32 -27 -20 -74 22 -24 22 -49 40 -55 40 -6 0 -35 -25 -64 -56 l-53
-56 44 -42 c67 -65 87 -74 172 -82 66 -6 83 -11 107 -34 43 -41 72 -36 125 21
49 52 50 65 5 99 -22 17 -30 34 -36 73 -4 29 -8 54 -9 57 -1 3 -5 19 -9 37 -5
21 -29 52 -67 88 -33 30 -64 55 -68 55 -4 0 -21 -12 -37 -28z m94 -54 c46 -44
50 -52 66 -130 12 -63 23 -89 45 -113 16 -16 27 -35 24 -42 -2 -7 -19 4 -39
27 -28 31 -37 53 -51 120 -15 77 -20 85 -65 129 -45 43 -61 67 -38 59 5 -1 31
-24 58 -50z m-152 -148 c29 -27 38 -40 27 -40 -17 0 -83 57 -83 72 0 15 13 8
56 -32z"/>
<path d="M2375 2795 c-14 -14 -25 -31 -25 -38 0 -7 23 -34 50 -60 38 -38 50
-56 50 -79 0 -28 -2 -29 -17 -17 -10 8 -21 18 -24 23 -8 10 -29 -1 -29 -14 0
-5 15 -25 34 -44 27 -28 34 -44 34 -77 l1 -42 -69 68 -68 67 -1 66 c0 36 -3
68 -6 70 -3 3 -24 6 -47 7 -32 1 -42 -3 -46 -17 -3 -12 -14 -18 -32 -18 -34 0
-54 -22 -48 -54 4 -20 0 -26 -16 -28 -17 -2 -21 -11 -22 -46 0 -23 3 -45 8
-48 5 -4 37 -6 71 -5 l62 1 62 -62 c35 -35 63 -65 63 -69 0 -4 -16 -5 -37 -3
-24 2 -47 14 -68 34 -17 16 -36 30 -42 30 -22 0 -22 -17 -2 -38 11 -12 18 -22
17 -23 -39 -11 -57 -3 -109 47 l-55 55 -32 -31 c-34 -32 -39 -49 -20 -68 8 -8
8 -15 -3 -28 -15 -19 -13 -55 4 -66 7 -4 7 -11 -2 -22 -17 -20 -6 -51 26 -76
l27 -21 50 50 c47 46 99 70 111 52 2 -5 -4 -16 -15 -26 -16 -14 -17 -21 -8
-32 9 -12 17 -8 48 22 27 27 47 37 80 40 l43 4 -24 -26 c-13 -15 -44 -46 -68
-70 -44 -42 -46 -43 -113 -43 -37 0 -68 -3 -69 -7 -9 -68 -4 -93 17 -93 9 0
14 -11 14 -30 0 -33 36 -65 62 -55 10 4 17 -1 21 -14 4 -17 13 -20 51 -19 51
1 50 0 47 96 -2 40 3 47 61 107 34 36 65 65 69 65 4 0 7 -17 7 -37 0 -30 -7
-45 -34 -71 -19 -18 -34 -37 -34 -42 0 -21 23 -20 47 1 l25 24 -3 -35 c-3 -26
-15 -47 -51 -82 -26 -26 -48 -52 -48 -59 0 -6 14 -25 31 -42 28 -26 33 -27 46
-14 13 13 18 13 44 0 26 -13 32 -13 52 0 19 12 25 12 43 1 18 -13 23 -11 54
21 l34 35 -52 53 c-42 43 -52 59 -52 87 l0 34 20 -22 c12 -12 25 -22 30 -22
21 0 9 37 -20 65 -24 23 -30 37 -30 69 l0 40 65 -64 64 -64 3 -70 3 -71 44 -1
c35 -2 44 2 49 18 3 15 10 18 28 14 31 -8 66 28 58 59 -4 16 0 24 14 27 15 4
19 14 18 49 l-1 44 -70 3 -70 3 -62 62 c-35 34 -63 64 -63 68 0 4 17 6 37 4
26 -1 46 -11 68 -33 17 -18 39 -32 48 -32 21 0 23 28 3 36 -29 11 -25 30 6 29
22 -1 45 -16 85 -55 l54 -53 37 36 c34 34 35 38 20 53 -15 15 -15 19 -1 40 15
24 10 64 -9 64 -6 0 -3 12 7 26 17 26 17 27 -17 61 l-34 34 -53 -52 c-40 -39
-60 -52 -87 -54 l-35 -2 21 22 c46 49 9 62 -40 14 -23 -23 -42 -32 -71 -34
-21 -1 -39 1 -39 4 0 4 28 35 63 69 l64 61 59 -1 c33 -1 65 1 70 5 6 3 11 25
12 48 2 34 -2 42 -19 46 -12 3 -18 11 -15 19 3 8 0 26 -6 40 -10 21 -17 25
-45 22 -26 -3 -33 0 -35 17 -3 17 -10 20 -48 20 l-45 0 -3 -71 -3 -71 -64 -67
-65 -66 0 43 c0 36 6 49 35 77 27 26 32 36 23 47 -9 11 -15 10 -35 -8 l-23
-22 0 33 c0 28 10 44 52 87 l52 53 -29 30 c-30 31 -53 38 -72 19 -8 -8 -13 -8
-17 0 -9 14 -63 14 -71 1 -4 -7 -12 -7 -25 0 -28 15 -36 13 -65 -15z"/>
</g>
</svg>
